<?xml version="1.0" encoding="UTF-8"?>
<svg id="Capa_1" data-name="Capa 1" xmlns="http://www.w3.org/2000/svg" viewBox="0 0 2139 407.76">
  <defs>
    <style>
      .cls-1 {
        fill: #6aba6e;
      }

      .cls-2 {
        fill: #1c1e28;
      }
    </style>
  </defs>
  <g>
    <path class="cls-2" d="m935.8,293.81c-19.61,19.35-44.43,29.03-74.47,29.03s-54.74-9.67-74.85-29.03c-19.86-19.35-29.79-43.66-29.79-72.94s9.93-52.95,29.79-72.56c20.37-19.6,45.32-29.41,74.85-29.41s54.36,9.8,74.47,29.41c20.11,19.35,30.17,43.54,30.17,72.56s-10.06,53.6-30.17,72.94Zm-112.66-34.37c10.18,10.19,22.91,15.28,38.19,15.28s28-5.09,38.19-15.28c10.18-10.18,15.28-23.04,15.28-38.57s-5.1-28-15.28-38.19c-10.44-10.44-23.17-15.66-38.19-15.66s-27.75,5.22-38.19,15.66c-10.19,10.19-15.28,22.91-15.28,38.19s5.09,28.39,15.28,38.57Z"/>
    <path class="cls-2" d="m1158.86,293.81c-19.61,19.35-44.43,29.03-74.47,29.03s-54.74-9.67-74.85-29.03c-19.86-19.35-29.79-43.66-29.79-72.94s9.93-52.95,29.79-72.56c20.37-19.6,45.32-29.41,74.85-29.41s54.36,9.8,74.47,29.41c20.11,19.35,30.17,43.54,30.17,72.56s-10.06,53.6-30.17,72.94Zm-112.66-34.37c10.18,10.19,22.91,15.28,38.19,15.28s28-5.09,38.19-15.28c10.18-10.18,15.28-23.04,15.28-38.57s-5.1-28-15.28-38.19c-10.44-10.44-23.17-15.66-38.19-15.66s-27.75,5.22-38.19,15.66c-10.19,10.19-15.28,22.91-15.28,38.19s5.09,28.39,15.28,38.57Z"/>
    <path class="cls-2" d="m1537.33,221.25c0,7.39-.51,12.98-1.53,16.8h-154.67c3.31,12.48,9.61,22.41,18.9,29.79,9.29,7.39,20.43,11.08,33.42,11.08,10.44,0,19.92-2.16,28.45-6.49,8.53-4.33,14.7-9.93,18.52-16.8h53.08c-7.13,20.12-19.86,36.41-38.19,48.88-18.08,12.22-38.95,18.33-62.63,18.33-29.79,0-54.74-9.67-74.85-29.03-19.86-19.35-29.79-43.66-29.79-72.94s9.93-52.95,29.79-72.56c20.37-19.6,45.32-29.41,74.85-29.41s54.36,9.8,74.47,29.41c20.11,19.35,30.17,43.67,30.17,72.94Zm-155.44-19.48h101.97c-3.31-11.96-9.61-21.51-18.9-28.64-9.3-7.12-20.05-10.69-32.27-10.69s-22.91,3.57-32.08,10.69c-9.17,7.13-15.41,16.68-18.71,28.64Z"/>
    <path class="cls-2" d="m1717.58,273.19v-112.48c0-20.56-16.66-37.23-37.22-37.23h-65.7v46.21h53.28v25.21h-50.03c-19.61,0-36.03,6.11-49.27,18.33-13.24,11.71-19.86,26.87-19.86,45.45s6.62,33.35,19.86,45.83c13.24,12.22,29.66,18.33,49.27,18.33,23.93,0,42.51-8.15,55.76-24.44v19.86h66.45v-45.07h-22.53Zm-49.65-17.56c0,8.15-3.57,14.77-10.69,19.86-7.13,5.1-16.42,7.64-27.88,7.64-8.4,0-15.41-2.42-21-7.26-5.61-4.83-8.4-10.81-8.4-17.94s2.8-13.05,8.4-17.76c5.59-4.71,12.6-7.07,21-7.07h38.57v22.53Z"/>
    <path class="cls-1" d="m1796.9,321.69c-9.93,0-18.21-3.31-24.82-9.93-6.62-6.62-9.93-14.76-9.93-24.44s3.31-17.82,9.93-24.44c6.62-6.62,14.89-9.93,24.82-9.93s17.82,3.31,24.44,9.93c6.62,6.62,9.93,14.77,9.93,24.44s-3.31,17.82-9.93,24.44c-6.62,6.62-14.77,9.93-24.44,9.93Z"/>
    <path class="cls-1" d="m1902.56,86.05c-5.86,5.86-13.24,8.78-22.15,8.78s-16.42-2.92-22.53-8.78c-5.86-6.11-8.78-13.49-8.78-22.15s2.92-15.91,8.78-21.77c6.11-6.11,13.62-9.17,22.53-9.17s16.29,3.06,22.15,9.17c6.11,5.86,9.17,13.12,9.17,21.77s-3.06,16.04-9.17,22.15Zm2.67,232.2h-49.65V123.48h49.65v194.77Z"/>
    <path class="cls-1" d="m2108.83,293.81c-19.61,19.35-44.43,29.03-74.47,29.03s-54.74-9.67-74.85-29.03c-19.86-19.35-29.79-43.66-29.79-72.94s9.93-52.95,29.79-72.56c20.37-19.6,45.32-29.41,74.85-29.41s54.36,9.8,74.47,29.41c20.11,19.35,30.17,43.54,30.17,72.56s-10.06,53.6-30.17,72.94Zm-112.66-34.37c10.18,10.19,22.91,15.28,38.19,15.28s28-5.09,38.19-15.28c10.18-10.18,15.28-23.04,15.28-38.57s-5.1-28-15.28-38.19c-10.44-10.44-23.17-15.66-38.19-15.66s-27.75,5.22-38.19,15.66c-10.19,10.19-15.28,22.91-15.28,38.19s5.09,28.39,15.28,38.57Z"/>
    <path class="cls-2" d="m749.55,273.19v45.07h-29.35c-20.56,0-37.22-16.67-37.22-37.22v-74.68c0-11.96-3.44-21.51-10.32-28.64-6.87-7.12-16.17-10.7-27.88-10.7s-22.09,3.7-29.6,11.08c-7.51,7.39-11.27,17.06-11.27,29.03v66.07h16.82v45.07h-29.24c-20.56,0-37.22-16.67-37.22-37.22v-74.68c0-11.71-3.51-21.19-10.51-28.45-7.01-7.26-16.23-10.89-27.69-10.89-12.22,0-22.15,3.7-29.79,11.08-7.64,7.39-11.46,17.06-11.46,29.03v66.07h16.8v45.07h-29.22c-20.56,0-37.22-16.67-37.22-37.22V123.48h49.64v22.53c14.26-18.08,33.48-27.12,57.67-27.12,29.53,0,50.41,11.71,62.64,35.14,15.27-23.43,37.29-35.14,66.07-35.14,21.38,0,38.57,6.63,51.56,19.86,13.23,13.24,19.86,30.81,19.86,52.7v81.73h16.93Z"/>
    <path class="cls-2" d="m1264.11,123.48v28.64c15.02-21.13,33.99-31.7,56.91-31.7v51.18c-18.08,0-32.08,4.77-42.01,14.32-9.93,9.55-14.9,22.72-14.9,39.53v92.81h-49.65V123.48h49.65Z"/>
  </g>
  <path class="cls-1" d="m168.02,407.76c15.88,0,48.1-38.15,48.1-38.15,15.55,9.54,31.61,41.92,42.61,28.47,19.22-23.53-16.54-81.9-16.54-81.9,41.5-63.99,25.43-124.55,25.43-124.55,33.61,50.55,43.08,59.63,59.09,71.89,16.01,12.26,12.02-43.72-17.61-109.95-21.34-47.68-74.56-49.27-79.5-49.27,0,0-24.58-.62-24.94-20.83-.04-2.54,2.52-83.48-36.64-83.48s-36.6,80.95-36.68,83.5c-.34,20.2-24.94,20.83-24.94,20.83-4.94,0-58.16,1.6-79.5,49.27C-2.76,219.83-6.73,275.81,9.29,263.54c16.01-12.27,25.47-21.35,59.08-71.89,0,0-16.07,60.57,25.43,124.55,0,0-35.76,58.36-16.52,81.89,11,13.45,27.03-18.96,42.55-28.47,0,0,32.22,38.15,48.1,38.15"/>
</svg>